HIERARCHY
ROOT Hips
{
  OFFSET 0.000 57.771 0.000
  CHANNELS 6 Xposition Yposition Zposition Zrotation Xrotation Yrotation
  JOINT LeftUpLeg
  {
    OFFSET 6.995 0.557 3.141
    CHANNELS 6 Xposition Yposition Zposition Zrotation Xrotation Yrotation
    JOINT LeftLeg
    {
      OFFSET 0.000 -25.560 0.000
      CHANNELS 6 Xposition Yposition Zposition Zrotation Xrotation Yrotation
      JOINT LeftFoot
      {
        OFFSET 0.000 -32.768 0.000
        CHANNELS 6 Xposition Yposition Zposition Zrotation Xrotation Yrotation
        End Site
        {
          OFFSET 0.000 0.000 8.601
        }
      }
    }
  }
  JOINT RightUpLeg
  {
    OFFSET -6.995 0.557 3.141
    CHANNELS 6 Xposition Yposition Zposition Zrotation Xrotation Yrotation
    JOINT RightLeg
    {
      OFFSET 0.000 -25.560 0.000
      CHANNELS 6 Xposition Yposition Zposition Zrotation Xrotation Yrotation
      JOINT RightFoot
      {
        OFFSET 0.000 -32.768 0.000
        CHANNELS 6 Xposition Yposition Zposition Zrotation Xrotation Yrotation
        End Site
        {
          OFFSET 0.000 0.000 8.601
        }
      }
    }
  }
  JOINT Spine
  {
    OFFSET 0.000 29.241 0.000
    CHANNELS 6 Xposition Yposition Zposition Zrotation Xrotation Yrotation
    JOINT Spine1
    {
      OFFSET 0.000 21.356 0.000
      CHANNELS 6 Xposition Yposition Zposition Zrotation Xrotation Yrotation
      JOINT LeftShoulder
      {
        OFFSET 1.219 -0.502 0.897
        CHANNELS 6 Xposition Yposition Zposition Zrotation Xrotation Yrotation
        JOINT LeftArm
        {
          OFFSET 13.751 0.000 0.000
          CHANNELS 6 Xposition Yposition Zposition Zrotation Xrotation Yrotation
          JOINT LeftForeArm
          {
            OFFSET 23.300 0.000 0.000
            CHANNELS 6 Xposition Yposition Zposition Zrotation Xrotation Yrotation
            JOINT LeftHand
            {
              OFFSET 23.300 0.000 0.000
              CHANNELS 6 Xposition Yposition Zposition Zrotation Xrotation Yrotation
              JOINT LeftHandThumb1
              {
                OFFSET 4.877 -1.044 3.608
                CHANNELS 6 Xposition Yposition Zposition Zrotation Xrotation Yrotation
                JOINT LeftHandThumb2
                {
                  OFFSET 2.665 0.000 0.000
                  CHANNELS 6 Xposition Yposition Zposition Zrotation Xrotation Yrotation
                  JOINT LeftHandThumb3
                  {
                    OFFSET 2.543 0.000 0.000
                    CHANNELS 6 Xposition Yposition Zposition Zrotation Xrotation Yrotation
                    End Site
                    {
                      OFFSET 2.667 0.000 -0.000
                    }
                  }
                }
              }
              JOINT LeftHandIndex1
              {
                OFFSET 9.232 -0.301 2.144
                CHANNELS 6 Xposition Yposition Zposition Zrotation Xrotation Yrotation
                JOINT LeftHandIndex2
                {
                  OFFSET 4.225 0.000 0.000
                  CHANNELS 6 Xposition Yposition Zposition Zrotation Xrotation Yrotation
                  JOINT LeftHandIndex3
                  {
                    OFFSET 2.654 -0.000 0.000
                    CHANNELS 6 Xposition Yposition Zposition Zrotation Xrotation Yrotation
                    End Site
                    {
                      OFFSET 1.958 -0.000 0.000
                    }
                  }
                }
              }
              JOINT LeftHandMiddle1
              {
                OFFSET 8.920 0.000 0.000
                CHANNELS 6 Xposition Yposition Zposition Zrotation Xrotation Yrotation
                JOINT LeftHandMiddle2
                {
                  OFFSET 4.863 -0.000 0.000
                  CHANNELS 6 Xposition Yposition Zposition Zrotation Xrotation Yrotation
                  JOINT LeftHandMiddle3
                  {
                    OFFSET 2.765 -0.000 -0.000
                    CHANNELS 6 Xposition Yposition Zposition Zrotation Xrotation Yrotation
                    End Site
                    {
                      OFFSET 2.006 0.000 0.000
                    }
                  }
                }
              }
              JOINT LeftHandRing1
              {
                OFFSET 8.689 -0.126 -2.087
                CHANNELS 6 Xposition Yposition Zposition Zrotation Xrotation Yrotation
                JOINT LeftHandRing2
                {
                  OFFSET 4.538 -0.000 0.000
                  CHANNELS 6 Xposition Yposition Zposition Zrotation Xrotation Yrotation
                  JOINT LeftHandRing3
                  {
                    OFFSET 2.305 0.000 -0.000
                    CHANNELS 6 Xposition Yposition Zposition Zrotation Xrotation Yrotation
                    End Site
                    {
                      OFFSET 1.923 0.000 0.000
                    }
                  }
                }
              }
              JOINT LeftHandPinky1
              {
                OFFSET 8.391 -0.817 -3.758
                CHANNELS 6 Xposition Yposition Zposition Zrotation Xrotation Yrotation
                JOINT LeftHandPinky2
                {
                  OFFSET 3.044 0.000 0.000
                  CHANNELS 6 Xposition Yposition Zposition Zrotation Xrotation Yrotation
                  JOINT LeftHandPinky3
                  {
                    OFFSET 1.975 -0.000 0.000
                    CHANNELS 6 Xposition Yposition Zposition Zrotation Xrotation Yrotation
                    End Site
                    {
                      OFFSET 1.667 -0.000 0.000
                    }
                  }
                }
              }
            }
          }
        }
      }
      JOINT RightShoulder
      {
        OFFSET -1.219 -0.502 0.897
        CHANNELS 6 Xposition Yposition Zposition Zrotation Xrotation Yrotation
        JOINT RightArm
        {
          OFFSET -13.751 0.000 0.000
          CHANNELS 6 Xposition Yposition Zposition Zrotation Xrotation Yrotation
          JOINT RightForeArm
          {
            OFFSET -23.300 0.000 0.000
            CHANNELS 6 Xposition Yposition Zposition Zrotation Xrotation Yrotation
            JOINT RightHand
            {
              OFFSET -23.300 0.000 0.000
              CHANNELS 6 Xposition Yposition Zposition Zrotation Xrotation Yrotation
              JOINT RightHandThumb1
              {
                OFFSET -4.877 -1.044 3.608
                CHANNELS 6 Xposition Yposition Zposition Zrotation Xrotation Yrotation
                JOINT RightHandThumb2
                {
                  OFFSET -2.665 -0.000 0.000
                  CHANNELS 6 Xposition Yposition Zposition Zrotation Xrotation Yrotation
                  JOINT RightHandThumb3
                  {
                    OFFSET -2.543 -0.000 0.000
                    CHANNELS 6 Xposition Yposition Zposition Zrotation Xrotation Yrotation
                    End Site
                    {
                      OFFSET -2.667 0.000 0.000
                    }
                  }
                }
              }
              JOINT RightHandIndex1
              {
                OFFSET -9.232 -0.301 2.144
                CHANNELS 6 Xposition Yposition Zposition Zrotation Xrotation Yrotation
                JOINT RightHandIndex2
                {
                  OFFSET -4.225 0.000 0.000
                  CHANNELS 6 Xposition Yposition Zposition Zrotation Xrotation Yrotation
                  JOINT RightHandIndex3
                  {
                    OFFSET -2.654 -0.000 0.000
                    CHANNELS 6 Xposition Yposition Zposition Zrotation Xrotation Yrotation
                    End Site
                    {
                      OFFSET -1.958 0.000 0.000
                    }
                  }
                }
              }
              JOINT RightHandMiddle1
              {
                OFFSET -8.920 0.000 0.000
                CHANNELS 6 Xposition Yposition Zposition Zrotation Xrotation Yrotation
                JOINT RightHandMiddle2
                {
                  OFFSET -4.863 -0.000 0.000
                  CHANNELS 6 Xposition Yposition Zposition Zrotation Xrotation Yrotation
                  JOINT RightHandMiddle3
                  {
                    OFFSET -2.765 0.000 0.000
                    CHANNELS 6 Xposition Yposition Zposition Zrotation Xrotation Yrotation
                    End Site
                    {
                      OFFSET -2.006 -0.000 0.000
                    }
                  }
                }
              }
              JOINT RightHandRing1
              {
                OFFSET -8.689 -0.126 -2.087
                CHANNELS 6 Xposition Yposition Zposition Zrotation Xrotation Yrotation
                JOINT RightHandRing2
                {
                  OFFSET -4.538 -0.000 -0.000
                  CHANNELS 6 Xposition Yposition Zposition Zrotation Xrotation Yrotation
                  JOINT RightHandRing3
                  {
                    OFFSET -2.305 -0.000 0.000
                    CHANNELS 6 Xposition Yposition Zposition Zrotation Xrotation Yrotation
                    End Site
                    {
                      OFFSET -1.923 0.000 0.000
                    }
                  }
                }
              }
              JOINT RightHandPinky1
              {
                OFFSET -8.391 -0.817 -3.758
                CHANNELS 6 Xposition Yposition Zposition Zrotation Xrotation Yrotation
                JOINT RightHandPinky2
                {
                  OFFSET -3.044 -0.000 0.000
                  CHANNELS 6 Xposition Yposition Zposition Zrotation Xrotation Yrotation
                  JOINT RightHandPinky3
                  {
                    OFFSET -1.975 -0.000 0.000
                    CHANNELS 6 Xposition Yposition Zposition Zrotation Xrotation Yrotation
                    End Site
                    {
                      OFFSET -1.667 -0.000 0.000
                    }
                  }
                }
              }
            }
          }
        }
      }
      JOINT Neck
      {
        OFFSET 0.000 0.697 0.000
        CHANNELS 6 Xposition Yposition Zposition Zrotation Xrotation Yrotation
        JOINT Head
        {
          OFFSET 0.000 6.299 0.000
          CHANNELS 6 Xposition Yposition Zposition Zrotation Xrotation Yrotation
          End Site
          {
            OFFSET 0.000 11.842 0.000
          }
        }
      }
    }
  }
}
MOTION
Frames:	4
Frame Time:	0.033333
-56.14582 69.54939 -190.81592 4.94557 -0.39044 21.83751 7.73912 -0.31499 3.18926 2.42437 9.04402 26.58258 0.00714 -25.77191 0.00003 1.98849 1.23138 -23.31277 0.00613 -31.37765 0.00657 0.67272 5.21659 -6.47120 -8.23803 1.65743 3.18867 -16.88349 -4.05598 1.24344 0.00610 -25.45983 0.00268 2.85224 19.92855 2.48928 0.00334 -35.46177 -0.00294 -0.00602 -1.39643 -0.19688 0.00868 29.13574 0.00043 0.21727 2.03127 0.70012 0.00085 21.41083 0.00537 0.25865 2.40594 0.91758 1.29628 -0.53942 0.92618 -15.27500 10.60307 -33.97125 15.13846 -0.00250 0.00193 -58.81645 -2.07397 6.56359 17.77643 -0.01122 -0.00652 169.09082 -14.91715 -3.18421 15.59638 0.00741 0.00623 14.34085 -3.90596 -16.92331 4.87701 -1.04401 3.60801 -41.57595 -8.45725 -7.72882 2.66497 0.00001 0.00000 0.00000 0.00000 5.00000 2.54300 0.00000 0.00001 -0.00000 0.00000 60.00000 9.23199 -0.30099 2.14400 -80.00000 -0.00000 0.00000 4.22501 0.00000 0.00001 -90.00000 0.00000 0.00000 2.65401 -0.00001 0.00000 -70.00000 0.00000 0.00000 8.92001 0.00000 0.00000 -80.00000 -0.00000 0.00000 4.86301 -0.00001 0.00001 -90.00000 0.00000 0.00000 2.76499 -0.00001 -0.00001 -70.00000 0.00000 0.00000 8.68901 -0.12600 -2.08700 -80.00000 -0.00000 0.00000 4.53799 -0.00001 0.00002 -90.00000 0.00000 0.00000 2.30500 0.00000 -0.00002 -70.00000 0.00000 0.00000 8.39100 -0.81700 -3.75799 -80.00000 -0.00000 0.00000 3.04401 0.00001 0.00000 -90.00000 0.00000 0.00000 1.97499 -0.00001 0.00000 -70.00000 0.00000 0.00000 -1.10131 -0.50077 0.92240 14.92970 12.16952 38.33042 -13.72416 0.00379 -0.00689 40.34119 0.95415 28.22251 -15.86491 0.00198 0.00206 152.58208 10.01303 52.02005 -20.15595 -0.00779 0.00844 18.75171 8.64002 -19.67284 -4.87700 -1.04400 3.60800 37.43813 21.26627 8.20656 -2.66498 -0.00001 0.00000 -0.00000 -0.00000 -5.00000 -2.54300 -0.00001 0.00000 0.00000 -0.00000 -60.00000 -9.23199 -0.30100 2.14400 80.00000 0.00000 0.00000 -4.22500 0.00001 0.00001 90.00000 -0.00000 0.00001 -2.65402 -0.00001 0.00001 69.99999 -0.00000 0.00000 -8.92000 0.00000 0.00001 80.00000 0.00000 0.00000 -4.86300 -0.00001 0.00001 90.00000 -0.00000 0.00001 -2.76499 0.00000 0.00001 69.99999 -0.00000 0.00000 -8.68900 -0.12600 -2.08701 80.00000 0.00000 0.00000 -4.53798 -0.00001 -0.00001 90.00000 -0.00000 0.00001 -2.30501 -0.00001 0.00001 69.99999 -0.00000 0.00000 -8.39100 -0.81701 -3.75800 80.00000 0.00000 0.00000 -3.04400 -0.00001 0.00001 90.00000 -0.00000 0.00001 -1.97500 -0.00002 0.00000 69.99999 -0.00000 0.00000 -0.00000 0.70153 0.00000 0.00001 -0.00006 -0.00001 -0.00244 6.32363 0.00652 -22.65710 1.15187 15.33343 
-56.16225 69.54069 -190.78792 4.95280 -0.39041 21.84798 7.73912 -0.31499 3.18926 2.44162 9.06787 26.66080 0.00714 -25.76543 0.00003 1.99666 1.22983 -23.32232 0.00613 -31.22416 0.00657 0.61115 4.83013 -6.48837 -8.23803 1.65743 3.18867 -16.86442 -4.03167 1.31292 0.00610 -25.46583 0.00268 2.78202 19.91717 2.46133 0.00334 -35.28903 -0.00294 -0.00685 -1.40753 -0.22921 0.00868 29.13574 0.00043 0.21757 2.03127 0.69159 0.00085 21.41083 0.00537 0.25904 2.40594 0.90831 1.29628 -0.53942 0.92618 -15.28112 10.67656 -34.14082 15.10971 -0.00250 0.00193 -58.95788 -2.35116 6.91178 17.94137 -0.01122 -0.00652 169.38620 -14.77427 -2.86932 15.60030 0.00741 0.00623 13.42164 -4.09068 -17.27751 4.87701 -1.04401 3.60801 -41.57595 -8.45725 -7.72882 2.66497 0.00001 0.00000 0.00000 0.00000 5.00000 2.54300 0.00000 0.00001 -0.00000 0.00000 60.00000 9.23199 -0.30099 2.14400 -80.00000 -0.00000 0.00000 4.22501 0.00000 0.00001 -90.00000 0.00000 0.00000 2.65401 -0.00001 0.00000 -70.00000 0.00000 0.00000 8.92001 0.00000 0.00000 -80.00000 -0.00000 0.00000 4.86301 -0.00001 0.00001 -90.00000 0.00000 0.00000 2.76499 -0.00001 -0.00001 -70.00000 0.00000 0.00000 8.68901 -0.12600 -2.08700 -80.00000 -0.00000 0.00000 4.53799 -0.00001 0.00002 -90.00000 0.00000 0.00000 2.30500 0.00000 -0.00002 -70.00000 0.00000 0.00000 8.39100 -0.81700 -3.75799 -80.00000 -0.00000 0.00000 3.04401 0.00001 0.00000 -90.00000 0.00000 0.00000 1.97499 -0.00001 0.00000 -70.00000 0.00000 0.00000 -1.10131 -0.50077 0.92240 14.89173 12.14222 38.34309 -13.75239 0.00379 -0.00689 42.87567 0.96863 31.27736 -15.83224 0.03018 0.01072 151.58553 8.69325 53.25475 -19.55778 0.04228 0.03291 18.56932 8.38144 -20.77129 -4.87700 -1.04400 3.60800 37.43813 21.26627 8.20656 -2.66498 -0.00001 0.00000 -0.00000 -0.00000 -5.00000 -2.54300 -0.00001 0.00000 0.00000 -0.00000 -60.00000 -9.23199 -0.30100 2.14400 80.00000 0.00000 0.00000 -4.22500 0.00001 0.00001 90.00000 -0.00000 0.00001 -2.65402 -0.00001 0.00001 69.99999 -0.00000 0.00000 -8.92000 0.00000 0.00001 80.00000 0.00000 0.00000 -4.86300 -0.00001 0.00001 90.00000 -0.00000 0.00001 -2.76499 0.00000 0.00001 69.99999 -0.00000 0.00000 -8.68900 -0.12600 -2.08701 80.00000 0.00000 0.00000 -4.53798 -0.00001 -0.00001 90.00000 -0.00000 0.00001 -2.30501 -0.00001 0.00001 69.99999 -0.00000 0.00000 -8.39100 -0.81701 -3.75800 80.00000 0.00000 0.00000 -3.04400 -0.00001 0.00001 90.00000 -0.00000 0.00001 -1.97500 -0.00002 0.00000 69.99999 -0.00000 0.00000 -0.00000 0.70153 0.00000 0.00001 -0.00006 -0.00001 -0.00244 6.32363 0.00652 -22.66736 1.12571 15.33287 
-56.18275 69.53201 -190.75041 4.95794 -0.39034 21.87223 7.73912 -0.31499 3.18926 2.47807 9.11072 26.74269 0.00714 -25.75886 0.00003 1.93643 1.20901 -23.36760 0.00613 -31.21319 0.00657 0.56514 4.56769 -6.49174 -8.23803 1.65743 3.18867 -16.83027 -3.98741 1.37697 0.00610 -25.46891 0.00268 2.75450 19.88931 2.41954 0.00334 -35.29661 -0.00294 -0.00772 -1.42365 -0.26141 0.00868 29.13950 0.00043 0.21789 2.02703 0.68402 0.00085 21.41083 0.00537 0.25937 2.40595 0.90053 1.29628 -0.53942 0.92618 -15.29597 10.71490 -34.20826 15.09500 -0.00250 0.00193 -59.03050 -2.41944 7.11267 17.97271 -0.01122 -0.00652 169.55219 -14.67046 -2.67259 15.60957 0.00741 0.00623 12.92975 -4.29065 -17.46636 4.87701 -1.04401 3.60801 -41.57595 -8.45725 -7.72882 2.66497 0.00001 0.00000 0.00000 0.00000 5.00000 2.54300 0.00000 0.00001 -0.00000 0.00000 60.00000 9.23199 -0.30099 2.14400 -80.00000 -0.00000 0.00000 4.22501 0.00000 0.00001 -90.00000 0.00000 0.00000 2.65401 -0.00001 0.00000 -70.00000 0.00000 0.00000 8.92001 0.00000 0.00000 -80.00000 -0.00000 0.00000 4.86301 -0.00001 0.00001 -90.00000 0.00000 0.00000 2.76499 -0.00001 -0.00001 -70.00000 0.00000 0.00000 8.68901 -0.12600 -2.08700 -80.00000 -0.00000 0.00000 4.53799 -0.00001 0.00002 -90.00000 0.00000 0.00000 2.30500 0.00000 -0.00002 -70.00000 0.00000 0.00000 8.39100 -0.81700 -3.75799 -80.00000 -0.00000 0.00000 3.04401 0.00001 0.00000 -90.00000 0.00000 0.00000 1.97499 -0.00001 0.00000 -70.00000 0.00000 0.00000 -1.10131 -0.50077 0.92240 14.89154 12.14484 38.34933 -13.76077 0.00379 -0.00689 46.62102 0.90492 34.41971 -17.12178 -0.14487 0.28920 151.53989 9.00723 51.45078 -19.31848 0.02522 0.04147 15.46821 8.91444 -18.92219 -4.87700 -1.04400 3.60800 37.43813 21.26627 8.20656 -2.66498 -0.00001 0.00000 -0.00000 -0.00000 -5.00000 -2.54300 -0.00001 0.00000 0.00000 -0.00000 -60.00000 -9.23199 -0.30100 2.14400 80.00000 0.00000 0.00000 -4.22500 0.00001 0.00001 90.00000 -0.00000 0.00001 -2.65402 -0.00001 0.00001 69.99999 -0.00000 0.00000 -8.92000 0.00000 0.00001 80.00000 0.00000 0.00000 -4.86300 -0.00001 0.00001 90.00000 -0.00000 0.00001 -2.76499 0.00000 0.00001 69.99999 -0.00000 0.00000 -8.68900 -0.12600 -2.08701 80.00000 0.00000 0.00000 -4.53798 -0.00001 -0.00001 90.00000 -0.00000 0.00001 -2.30501 -0.00001 0.00001 69.99999 -0.00000 0.00000 -8.39100 -0.81701 -3.75800 80.00000 0.00000 0.00000 -3.04400 -0.00001 0.00001 90.00000 -0.00000 0.00001 -1.97500 -0.00002 0.00000 69.99999 -0.00000 0.00000 -0.00000 0.70153 0.00000 0.00001 -0.00006 -0.00001 -0.00244 6.32363 0.00652 -22.66357 1.05688 15.31451 
-56.20157 69.52225 -190.71384 4.97661 -0.39034 21.87284 7.73395 -0.32025 3.18926 2.50146 9.14929 26.84508 0.00714 -25.74760 0.00003 1.89605 1.19382 -23.40790 0.00613 -31.23371 0.00657 0.53111 4.37024 -6.48521 -8.23803 1.66286 3.18867 -16.82176 -3.96922 1.44666 0.00610 -25.47919 0.00268 2.74342 19.87763 2.39329 0.00334 -35.32164 -0.00294 -0.00796 -1.44035 -0.26794 0.00868 29.14616 0.00043 0.21721 2.02219 0.70475 0.00085 21.41697 0.00537 0.25854 2.40594 0.92036 1.29628 -0.53942 0.92618 -15.36030 10.74037 -34.15385 15.11245 -0.00250 0.00193 -59.10023 -2.28124 7.13285 17.93252 -0.01122 -0.00652 169.67708 -14.55932 -2.60764 15.61889 0.00741 0.00623 12.65600 -4.46020 -17.52342 4.87701 -1.04401 3.60801 -41.57595 -8.45725 -7.72882 2.66497 0.00001 0.00000 0.00000 0.00000 5.00000 2.54300 0.00000 0.00001 -0.00000 0.00000 60.00000 9.23199 -0.30099 2.14400 -80.00000 -0.00000 0.00000 4.22501 0.00000 0.00001 -90.00000 0.00000 0.00000 2.65401 -0.00001 0.00000 -70.00000 0.00000 0.00000 8.92001 0.00000 0.00000 -80.00000 -0.00000 0.00000 4.86301 -0.00001 0.00001 -90.00000 0.00000 0.00000 2.76499 -0.00001 -0.00001 -70.00000 0.00000 0.00000 8.68901 -0.12600 -2.08700 -80.00000 -0.00000 0.00000 4.53799 -0.00001 0.00002 -90.00000 0.00000 0.00000 2.30500 0.00000 -0.00002 -70.00000 0.00000 0.00000 8.39100 -0.81700 -3.75799 -80.00000 -0.00000 0.00000 3.04401 0.00001 0.00000 -90.00000 0.00000 0.00000 1.97499 -0.00001 0.00000 -70.00000 0.00000 0.00000 -1.10131 -0.50077 0.92240 14.91433 12.17008 38.36168 -13.75424 0.00379 -0.00689 47.52757 1.02293 35.30678 -17.01875 -0.09862 0.20550 150.82666 8.53283 52.23714 -19.15723 0.02179 0.02885 16.48446 8.70141 -19.89697 -4.87700 -1.04400 3.60800 37.43813 21.26627 8.20656 -2.66498 -0.00001 0.00000 -0.00000 -0.00000 -5.00000 -2.54300 -0.00001 0.00000 0.00000 -0.00000 -60.00000 -9.23199 -0.30100 2.14400 80.00000 0.00000 0.00000 -4.22500 0.00001 0.00001 90.00000 -0.00000 0.00001 -2.65402 -0.00001 0.00001 69.99999 -0.00000 0.00000 -8.92000 0.00000 0.00001 80.00000 0.00000 0.00000 -4.86300 -0.00001 0.00001 90.00000 -0.00000 0.00001 -2.76499 0.00000 0.00001 69.99999 -0.00000 0.00000 -8.68900 -0.12600 -2.08701 80.00000 0.00000 0.00000 -4.53798 -0.00001 -0.00001 90.00000 -0.00000 0.00001 -2.30501 -0.00001 0.00001 69.99999 -0.00000 0.00000 -8.39100 -0.81701 -3.75800 80.00000 0.00000 0.00000 -3.04400 -0.00001 0.00001 90.00000 -0.00000 0.00001 -1.97500 -0.00002 0.00000 69.99999 -0.00000 0.00000 -0.00000 0.70153 0.00000 0.00001 -0.00006 -0.00001 -0.00244 6.32363 0.00652 -22.78003 1.05316 15.25048 
